<?xml version="1.0" encoding="UTF-8"?>
<svg version="1.1" xmlns="http://www.w3.org/2000/svg" width="157" height="148">
<path d="M0 0 C6.55277585 2.9949691 12.84764886 6.41762507 19.09179688 10.00488281 C21.9752094 11.6585293 24.87817017 13.25602798 27.80859375 14.82421875 C38.14414031 20.40937438 38.14414031 20.40937438 39.38671875 22.89453125 C39.49836758 25.60112418 39.55085597 28.28103501 39.5546875 30.98828125 C39.5596801 32.21846985 39.5596801 32.21846985 39.56477356 33.47351074 C39.56984892 35.22208089 39.5721817 36.97066077 39.57202148 38.71923828 C39.57416462 41.32862766 39.59218953 43.93756303 39.61132812 46.546875 C39.64038727 54.96951664 39.41962748 63.28995235 38.5078125 71.66796875 C38.43112839 72.3791687 38.35444427 73.09036865 38.2754364 73.82312012 C36.1251304 91.5310598 28.19876221 108.62589669 16.38671875 121.89453125 C15.76925781 122.67699219 15.15179688 123.45945312 14.515625 124.265625 C7.10953562 133.28863838 -3.61011204 143.98304489 -15.546875 146.03515625 C-25.21206609 146.86844543 -32.10494861 144.69850171 -39.62890625 138.578125 C-40.62489821 137.68493038 -41.61968564 136.79039082 -42.61328125 135.89453125 C-43.64765269 135.02875061 -44.68412437 134.16547315 -45.72265625 133.3046875 C-64.02747456 117.74515893 -76.16915745 95.63544522 -78.71875 71.65625 C-78.8431118 70.50126762 -78.8431118 70.50126762 -78.96998596 69.32295227 C-79.8043944 60.94060777 -80.02023903 52.56834712 -80.03881836 44.14868164 C-80.05098792 41.53769062 -80.10065959 38.92887457 -80.15039062 36.31835938 C-80.15983048 34.63933418 -80.16707711 32.96029488 -80.171875 31.28125 C-80.19140732 30.51044601 -80.21093964 29.73964203 -80.23106384 28.94548035 C-80.19995947 25.24875038 -79.83191053 23.19261564 -77.62817383 20.18798828 C-73.86419285 17.32469269 -69.98469481 15.03480462 -65.81640625 12.8125 C-64.95905884 12.35182632 -64.10171143 11.89115265 -63.21838379 11.41651917 C-22.79587997 -10.00776323 -22.79587997 -10.00776323 0 0 Z " fill="#04BFF8" transform="translate(98.61328125,3.10546875)"/>
<path d="M0 0 C6.55277585 2.9949691 12.84764886 6.41762507 19.09179688 10.00488281 C21.9752094 11.6585293 24.87817017 13.25602798 27.80859375 14.82421875 C38.14414031 20.40937438 38.14414031 20.40937438 39.38671875 22.89453125 C39.49836758 25.60112418 39.55085597 28.28103501 39.5546875 30.98828125 C39.5596801 32.21846985 39.5596801 32.21846985 39.56477356 33.47351074 C39.56984892 35.22208089 39.5721817 36.97066077 39.57202148 38.71923828 C39.57416462 41.32862766 39.59218953 43.93756303 39.61132812 46.546875 C39.64038727 54.96951664 39.41962748 63.28995235 38.5078125 71.66796875 C38.43112839 72.3791687 38.35444427 73.09036865 38.2754364 73.82312012 C36.1251304 91.5310598 28.19876221 108.62589669 16.38671875 121.89453125 C15.76925781 122.67699219 15.15179688 123.45945312 14.515625 124.265625 C7.10953562 133.28863838 -3.61011204 143.98304489 -15.546875 146.03515625 C-25.21206609 146.86844543 -32.10494861 144.69850171 -39.62890625 138.578125 C-40.62489821 137.68493038 -41.61968564 136.79039082 -42.61328125 135.89453125 C-43.64765269 135.02875061 -44.68412437 134.16547315 -45.72265625 133.3046875 C-64.02747456 117.74515893 -76.16915745 95.63544522 -78.71875 71.65625 C-78.8431118 70.50126762 -78.8431118 70.50126762 -78.96998596 69.32295227 C-79.8043944 60.94060777 -80.02023903 52.56834712 -80.03881836 44.14868164 C-80.05098792 41.53769062 -80.10065959 38.92887457 -80.15039062 36.31835938 C-80.15983048 34.63933418 -80.16707711 32.96029488 -80.171875 31.28125 C-80.19140732 30.51044601 -80.21093964 29.73964203 -80.23106384 28.94548035 C-80.19995947 25.24875038 -79.83191053 23.19261564 -77.62817383 20.18798828 C-73.86419285 17.32469269 -69.98469481 15.03480462 -65.81640625 12.8125 C-64.95905884 12.35182632 -64.10171143 11.89115265 -63.21838379 11.41651917 C-22.79587997 -10.00776323 -22.79587997 -10.00776323 0 0 Z M-27.36328125 5.640625 C-28.53117187 6.23166016 -29.6990625 6.82269531 -30.90234375 7.43164062 C-32.13952408 8.0647112 -33.37650352 8.69817452 -34.61328125 9.33203125 C-36.98716379 10.54134281 -39.3616792 11.74918843 -41.73828125 12.953125 C-42.64477417 13.41288223 -42.64477417 13.41288223 -43.56958008 13.88192749 C-51.83786758 18.05021686 -60.23013042 21.96395258 -68.61328125 25.89453125 C-68.71348156 32.13431314 -68.7853675 38.37360873 -68.83300781 44.61401367 C-68.85290456 46.7290057 -68.8800319 48.84394435 -68.91503906 50.95874023 C-69.30925382 75.4174471 -65.23996026 96.20604507 -49.36328125 115.51953125 C-48.70851807 116.31979736 -48.70851807 116.31979736 -48.04052734 117.13623047 C-46.94590151 118.43096293 -45.78444662 119.66859915 -44.61328125 120.89453125 C-43.95328125 120.89453125 -43.29328125 120.89453125 -42.61328125 120.89453125 C-42.28328125 121.88453125 -41.95328125 122.87453125 -41.61328125 123.89453125 C-39.58401051 125.63349144 -37.5667008 127.24345478 -35.42578125 128.83203125 C-34.57790039 129.47688477 -34.57790039 129.47688477 -33.71289062 130.13476562 C-32.0266318 131.4076689 -30.32253774 132.65274671 -28.61328125 133.89453125 C-27.58589844 134.65894531 -26.55851562 135.42335937 -25.5 136.2109375 C-22.32430258 138.06306955 -21.18498091 138.67381118 -17.61328125 137.89453125 C-15.01868682 136.45138405 -12.70847478 134.70900006 -10.36328125 132.89453125 C-9.69723877 132.38905762 -9.03119629 131.88358398 -8.3449707 131.36279297 C-6.42116774 129.88949047 -4.51467333 128.39659436 -2.61328125 126.89453125 C-1.74574219 126.21648437 -0.87820312 125.5384375 0.015625 124.83984375 C15.66468186 111.79429724 24.94721925 92.77233555 28.38671875 72.89453125 C28.46842743 71.2994132 28.50464415 69.7014514 28.50024414 68.10424805 C28.50016861 67.18367111 28.50009308 66.26309418 28.50001526 65.31462097 C28.49485397 64.33423355 28.48969269 63.35384613 28.484375 62.34375 C28.48296005 61.32980667 28.4815451 60.31586334 28.48008728 59.27119446 C28.47450203 56.04144304 28.4619522 52.81176163 28.44921875 49.58203125 C28.44420185 47.38867288 28.43963927 45.19531342 28.43554688 43.00195312 C28.42453743 37.63278872 28.40781395 32.26366499 28.38671875 26.89453125 C15.44624474 20.10452438 2.48410208 13.3769257 -10.61328125 6.89453125 C-11.30953613 6.52972656 -12.00579102 6.16492188 -12.72314453 5.7890625 C-13.43067871 5.42167969 -14.13821289 5.05429688 -14.8671875 4.67578125 C-15.51115479 4.33611328 -16.15512207 3.99644531 -16.81860352 3.64648438 C-20.96122247 1.91076592 -23.63464592 3.73659783 -27.36328125 5.640625 Z " fill="#AFC8EA" transform="translate(98.61328125,3.10546875)"/>
<path d="M0 0 C3.7602985 0.58107632 6.53035032 1.65199496 9.8125 3.5625 C10.60269531 4.01753906 11.39289063 4.47257812 12.20703125 4.94140625 C12.79871094 5.29074219 13.39039062 5.64007813 14 6 C14.10009252 12.25809246 14.17203751 18.51570247 14.21972656 24.77441406 C14.23964078 26.89624159 14.26678222 29.01801573 14.30175781 31.13964844 C14.68605838 55.07931293 10.45767246 74.98437199 -5 94 C-5.92232422 95.16789062 -5.92232422 95.16789062 -6.86328125 96.359375 C-12.11565969 102.66657893 -18.34358397 107.25982495 -25 112 C-26.06347656 112.82951172 -26.06347656 112.82951172 -27.1484375 113.67578125 C-29.51042282 115.50657773 -31.35599584 116.90372031 -34.3515625 117.3515625 C-37.8686319 116.88469488 -39.63487309 115.46316831 -42.4375 113.3125 C-43.39140625 112.58675781 -44.3453125 111.86101562 -45.328125 111.11328125 C-48.26574671 108.78981145 -51.16714453 106.45003717 -54 104 C-53.01 104 -52.02 104 -51 104 C-50.34 104.66 -49.68 105.32 -49 106 C-46.77639629 107.40828235 -45.63705007 108.09953907 -43 107.6875 C-42.34 107.460625 -41.68 107.23375 -41 107 C-39.66666667 106.66666667 -38.33333333 106.33333333 -37 106 C-37 105.34 -37 104.68 -37 104 C-35.64692303 103.06325441 -34.28698381 102.13552137 -32.90234375 101.24609375 C-20.49939651 93.12178129 -12.56499222 82.63423093 -7 69 C-6.34 69 -5.68 69 -5 69 C-3.57741188 65.17679443 -2.75957724 62.08718695 -3 58 C-2.34 58 -1.68 58 -1 58 C0.66746532 45.10898434 1.39119653 32.36570514 1.625 19.375 C1.66332847 17.57810919 1.70238779 15.78123382 1.7421875 13.984375 C1.83650363 9.65638054 1.92109366 5.32830168 2 1 C1.34 0.67 0.68 0.34 0 0 Z " fill="#09A8EF" transform="translate(113,24)"/>
<path d="M0 0 C4.42672465 2.52838802 7.09582694 5.0806258 8.55078125 10.08203125 C9.69841572 20.64317375 9.69841572 20.64317375 6.47265625 24.6875 C3.51944811 29.90363389 4.65343605 34.59574752 5.36328125 40.39453125 C5.6030345 42.57768121 5.83893391 44.76125909 6.0703125 46.9453125 C6.18479736 47.90735596 6.29928223 48.86939941 6.41723633 49.8605957 C6.46130615 50.59366943 6.50537598 51.32674316 6.55078125 52.08203125 C5.55078125 53.08203125 5.55078125 53.08203125 2.95874023 53.19555664 C1.83282471 53.19031982 0.70690918 53.18508301 -0.453125 53.1796875 C-1.66806641 53.17646484 -2.88300781 53.17324219 -4.13476562 53.16992188 C-5.41416016 53.16154297 -6.69355469 53.15316406 -8.01171875 53.14453125 C-9.29498047 53.14001953 -10.57824219 53.13550781 -11.90039062 53.13085938 C-15.08337897 53.1190267 -18.26627637 53.10254193 -21.44921875 53.08203125 C-22.3468581 49.08154489 -22.32116837 46.30619832 -21.51171875 42.26953125 C-20.63874805 37.36283385 -19.93505499 33.05228089 -20.44921875 28.08203125 C-21.10921875 27.17453125 -21.76921875 26.26703125 -22.44921875 25.33203125 C-25.48453051 20.39964964 -25.19185413 15.7275757 -24.44921875 10.08203125 C-23.18426616 6.09529866 -20.94072775 3.56125252 -17.94921875 0.64453125 C-12.16743712 -1.93662126 -5.98885414 -2.24462635 0 0 Z " fill="#05539D" transform="translate(86.44921875,45.91796875)"/>
<path d="M0 0 C3.62075362 3.09272705 4.86498412 4.88129696 5.4375 9.625 C4.77777778 14.71428571 4.77777778 14.71428571 3 17 C0.375 18.25 0.375 18.25 -2 19 C-2 20.98 -2 22.96 -2 25 C-1.34 25 -0.68 25 0 25 C0 26.32 0 27.64 0 29 C-0.66 29 -1.32 29 -2 29 C-2 30.65 -2 32.3 -2 34 C-1.01 34.33 -0.02 34.66 1 35 C1 36.32 1 37.64 1 39 C-1.33294775 39.04241723 -3.66702567 39.04092937 -6 39 C-7 38 -7 38 -7.11352539 36.14233398 C-7.10828857 35.35157471 -7.10305176 34.56081543 -7.09765625 33.74609375 C-7.09443359 32.89208984 -7.09121094 32.03808594 -7.08789062 31.15820312 C-7.07951172 30.26037109 -7.07113281 29.36253906 -7.0625 28.4375 C-7.05798828 27.53580078 -7.05347656 26.63410156 -7.04882812 25.70507812 C-7.03700225 23.46998686 -7.0205222 21.23502563 -7 19 C-7.62390625 18.69320312 -8.2478125 18.38640625 -8.890625 18.0703125 C-12.51119403 16.23320896 -12.51119403 16.23320896 -14 14 C-14.5375463 9.2388756 -14.71502323 7.12020305 -12.125 3.0625 C-8.54327939 -0.41387589 -4.85587889 -0.96560498 0 0 Z " fill="#CFEFFB" transform="translate(83,52)"/>
<path d="M0 0 C0.33 0 0.66 0 1 0 C1.01401855 1.91123657 1.01401855 1.91123657 1.02832031 3.86108398 C1.0687477 8.67180017 1.13464151 13.48191156 1.20751953 18.29223633 C1.23542768 20.35856245 1.25678904 22.42498934 1.27099609 24.49145508 C1.46438903 51.05719803 6.77804365 72.8223652 25 93 C29.92152757 97.83811185 35.42338111 101.95101873 41 106 C40.01 106.495 40.01 106.495 39 107 C37.32580562 106.0126546 35.65948148 105.01187895 34 104 C33.01 104 32.02 104 31 104 C31 103.01 31 102.02 31 101 C25.71800407 99.80011955 25.71800407 99.80011955 21 102 C21 101.34 21 100.68 21 100 C20.34 100 19.68 100 19 100 C18.67 98.68 18.34 97.36 18 96 C17.01 96.495 17.01 96.495 16 97 C15.34 95.35 14.68 93.7 14 92 C15.32 92 16.64 92 18 92 C18 92.66 18 93.32 18 94 C18.99 94 19.98 94 21 94 C19.43761402 90.54630469 17.81072436 87.64429408 15.3125 84.8125 C13 82 13 82 13 79 C9.535 79.495 9.535 79.495 6 80 C5.34 78.68 4.68 77.36 4 76 C4.66 76 5.32 76 6 76 C6 75.34 6 74.68 6 74 C6.99 73.505 6.99 73.505 8 73 C8 72.01 8 71.02 8 70 C7.34 70 6.68 70 6 70 C5.67 68.68 5.34 67.36 5 66 C3.88625 66.350625 2.7725 66.70125 1.625 67.0625 C-2 68 -2 68 -4 67 C-6.35117412 61.92641375 -6.06676502 58.33382511 -5 53 C-4.34 52.34 -3.68 51.68 -3 51 C-2.01 51 -1.02 51 0 51 C0 34.17 0 17.34 0 0 Z " fill="#9DCCF1" transform="translate(29,30)"/>
<path d="M0 0 C1.32 0 2.64 0 4 0 C4.6509259 1.24735567 5.29551669 2.49801832 5.9375 3.75 C6.29714844 4.44609375 6.65679687 5.1421875 7.02734375 5.859375 C10.02441764 12.45534486 10.19536714 20.75737571 8.24609375 27.67578125 C6.43823032 31.89412925 4.26719886 35.73280114 1 39 C0.01 39 -0.98 39 -2 39 C-2.45477798 35.79588244 -2.85684997 32.58721441 -3.25 29.375 C-3.37890625 28.47136719 -3.5078125 27.56773438 -3.640625 26.63671875 C-4.35453336 20.52387842 -3.75451568 18.06290751 0 13 C0.47912228 9.57413881 0.47912228 9.57413881 0.25 6.125 C0.21390625 4.97257812 0.1778125 3.82015625 0.140625 2.6328125 C0.09421875 1.76398437 0.0478125 0.89515625 0 0 Z " fill="#F9C348" transform="translate(94,55)"/>
<path d="M0 0 C0.03867187 1.19496094 0.03867187 1.19496094 0.078125 2.4140625 C0.43018071 8.99110332 1.16242853 12.55312436 5 18 C5.7011512 24.77779493 4.2432551 31.33970483 3 38 C-2.0712288 35.71255211 -5.08058066 32.29535592 -7.125 27.19140625 C-9.3307654 19.14627084 -8.7961399 11.19969121 -5.16796875 3.70703125 C-3.8954097 1.84713726 -2.49141573 0 0 0 Z " fill="#FBC345" transform="translate(62,56)"/>
<path d="M0 0 C1.12383849 3.37151546 1.16190374 4.68027502 0 8 C-4.03448276 11 -4.03448276 11 -7 11 C-7.144375 11.763125 -7.28875 12.52625 -7.4375 13.3125 C-8 16 -8 16 -9 19 C-8.01 19 -7.02 19 -6 19 C-5.67 20.32 -5.34 21.64 -5 23 C-8.63 25.97 -12.26 28.94 -16 32 C-21 30 -21 30 -23 27 C-24.32 27.33 -25.64 27.66 -27 28 C-27 28.66 -27 29.32 -27 30 C-27.66 30 -28.32 30 -29 30 C-28.67 30.99 -28.34 31.98 -28 33 C-29.65 32.67 -31.3 32.34 -33 32 C-29.99147044 28.69061748 -26.8862561 26.14972874 -23.1875 23.625 C-13.52625374 16.9463246 -6.89748169 9.39923223 0 0 Z " fill="#ABC9EC" transform="translate(114,109)"/>
<path d="M0 0 C2.92906579 -0.2978711 5.14352551 -0.50159903 8 0 C11.61144774 3.08477828 12.84942137 4.90830493 13.5 9.625 C12.99020096 13.06614352 12.37513086 14.52590535 10 17 C9.67 16.34 9.34 15.68 9 15 C7.081875 15.061875 7.081875 15.061875 5.125 15.125 C2.9453125 15.1953125 2.9453125 15.1953125 1 15 C-1 13 -1 13 -1.1953125 10.8359375 C-1.17210938 10.02382813 -1.14890625 9.21171875 -1.125 8.375 C-1.10695313 7.55773438 -1.08890625 6.74046875 -1.0703125 5.8984375 C-1.04710938 5.27195312 -1.02390625 4.64546875 -1 4 C0.4540625 3.814375 0.4540625 3.814375 1.9375 3.625 C3.4534375 3.315625 3.4534375 3.315625 5 3 C5.33 2.34 5.66 1.68 6 1 C4.02 1 2.04 1 0 1 C0 0.67 0 0.34 0 0 Z " fill="#C1E7F8" transform="translate(75,52)"/>
<path d="M0 0 C4.75 1.875 4.75 1.875 7 3 C7.10009252 9.25809246 7.17203751 15.51570247 7.21972656 21.77441406 C7.23964078 23.89624159 7.26678222 26.01801573 7.30175781 28.13964844 C7.54083458 43.03272448 6.82191299 56.09027763 1 70 C0.67 70 0.34 70 0 70 C0.0895773 68.66560711 0.1977103 67.33246081 0.3125 66 C0.37050781 65.2575 0.42851563 64.515 0.48828125 63.75 C1 61 1 61 2.5 57.53320312 C4.48446023 52.30646299 4.47663907 47.25608648 4.51171875 41.71875 C4.52966995 40.66465942 4.54762115 39.61056885 4.56611633 38.52453613 C4.61996756 35.18306385 4.65403452 31.84173235 4.6875 28.5 C4.72069526 26.22393885 4.75518694 23.94789622 4.79101562 21.671875 C4.87567936 16.11470965 4.94413511 10.55752551 5 5 C4.34 5 3.68 5 3 5 C3 4.01 3 3.02 3 2 C1.68 1.67 0.36 1.34 -1 1 C-0.67 0.67 -0.34 0.34 0 0 Z " fill="#19A2E3" transform="translate(120,27)"/>
<path d="M0 0 C8.86956522 2.95652174 8.86956522 2.95652174 12 7 C12 7.66 12 8.32 12 9 C11.34 9 10.68 9 10 9 C10.33 10.65 10.66 12.3 11 14 C13.475 14.495 13.475 14.495 16 15 C16 15.66 16 16.32 16 17 C10.90117545 15.4719611 6.34334341 13.28963144 1.625 10.875 C0.88894531 10.50246094 0.15289062 10.12992188 -0.60546875 9.74609375 C-2.40550358 8.8343878 -4.20301402 7.91770068 -6 7 C-6 6.67 -6 6.34 -6 6 C-4.35 6 -2.7 6 -1 6 C-0.67 4.02 -0.34 2.04 0 0 Z " fill="#AFCBED" transform="translate(96,5)"/>
<path d="M0 0 C-1.375 1.5 -1.375 1.5 -3 3 C-3.66 3 -4.32 3 -5 3 C-5 3.66 -5 4.32 -5 5 C-6.65 5.33 -8.3 5.66 -10 6 C-11.09506492 9.28519475 -11.09960608 11.73663415 -11.0625 15.1875 C-11.05347656 16.27417969 -11.04445313 17.36085938 -11.03515625 18.48046875 C-11.02355469 19.31191406 -11.01195313 20.14335938 -11 21 C-12.65 21 -14.3 21 -16 21 C-17.75728839 11.50682251 -17.75728839 11.50682251 -15.4375 7.125 C-10.9150287 1.32695987 -7.38209951 -0.59056796 0 0 Z " fill="#0255A1" transform="translate(79,45)"/>
<path d="M0 0 C0.66 0 1.32 0 2 0 C2.10914609 1.87367462 2.1861054 3.74923698 2.25 5.625 C2.29640625 6.66914062 2.3428125 7.71328125 2.390625 8.7890625 C2 12 2 12 -0.03125 14.75 C-2.8390663 19.38512532 -2.22310169 23.11080506 -1.75 28.375 C-1.68425781 29.30183594 -1.61851563 30.22867188 -1.55078125 31.18359375 C-1.38665259 33.45794801 -1.202592 35.72880347 -1 38 C-3.22824593 33.8406076 -4.1313106 30.38348378 -4.09765625 25.671875 C-4.09443359 24.87265625 -4.09121094 24.0734375 -4.08789062 23.25 C-4.07951172 22.425 -4.07113281 21.6 -4.0625 20.75 C-4.05798828 19.90953125 -4.05347656 19.0690625 -4.04882812 18.203125 C-4.03707961 16.13538599 -4.01914522 14.06768376 -4 12 C-4.99 11.67 -5.98 11.34 -7 11 C-5.75 9.4375 -5.75 9.4375 -4 8 C-2.68 8.33 -1.36 8.66 0 9 C0 6.03 0 3.06 0 0 Z " fill="#1D5585" transform="translate(93,56)"/>
<path d="M0 0 C0.99 0.33 1.98 0.66 3 1 C3 1.99 3 2.98 3 4 C4.98 4.66 6.96 5.32 9 6 C8.67 7.65 8.34 9.3 8 11 C-0.91 11 -9.82 11 -19 11 C-19 10.67 -19 10.34 -19 10 C-11.08 9.505 -11.08 9.505 -3 9 C-3 8.01 -3 7.02 -3 6 C-2.34 6 -1.68 6 -1 6 C-0.67 4.02 -0.34 2.04 0 0 Z " fill="#0264AD" transform="translate(84,88)"/>
<path d="M0 0 C1.65 0 3.3 0 5 0 C5.02690104 2.79173055 5.04679053 5.58320348 5.0625 8.375 C5.07087891 9.1690625 5.07925781 9.963125 5.08789062 10.78125 C5.11328125 16.7734375 5.11328125 16.7734375 4 19 C3.01 19 2.02 19 1 19 C-0.25433458 15.23699626 -0.10695422 11.72789091 -0.0625 7.8125 C-0.05798828 7.06291016 -0.05347656 6.31332031 -0.04882812 5.54101562 C-0.03706354 3.69397617 -0.01912865 1.84697787 0 0 Z " fill="#03ADF0" transform="translate(76,105)"/>
<path d="M0 0 C2 2 2 2 2.1953125 5.9140625 C2.18200376 7.48449351 2.15813602 9.05486221 2.125 10.625 C2.11597656 11.42679688 2.10695313 12.22859375 2.09765625 13.0546875 C2.07406223 15.03658523 2.03819065 17.01832981 2 19 C0.35 19 -1.3 19 -3 19 C-3.08071788 16.20775927 -3.14035408 13.41783434 -3.1875 10.625 C-3.21263672 9.8309375 -3.23777344 9.036875 -3.26367188 8.21875 C-3.29004405 6.14413852 -3.15486462 4.06899135 -3 2 C-2.01 1.34 -1.02 0.68 0 0 Z " fill="#04ACF0" transform="translate(79,17)"/>
<path d="M0 0 C0.66 0.33 1.32 0.66 2 1 C-4.16136913 4.85889507 -10.29984162 8.18420068 -17 11 C-17.99 11.495 -17.99 11.495 -19 12 C-19.33 26.52 -19.66 41.04 -20 56 C-20.33 56 -20.66 56 -21 56 C-21 40.82 -21 25.64 -21 10 C-17.57625 8.329375 -14.1525 6.65875 -10.625 4.9375 C-9.54686035 4.40632568 -8.4687207 3.87515137 -7.35791016 3.32788086 C-6.08633057 2.71505249 -6.08633057 2.71505249 -4.7890625 2.08984375 C-3.91975098 1.66566162 -3.05043945 1.24147949 -2.15478516 0.80444336 C-1.0881665 0.4062439 -1.0881665 0.4062439 0 0 Z " fill="#1AB5E9" transform="translate(51,19)"/>
<path d="M0 0 C0.33 4.62 0.66 9.24 1 14 C-0.32 13.01 -1.64 12.02 -3 11 C-3 10.34 -3 9.68 -3 9 C-3.66 9 -4.32 9 -5 9 C-5 9.99 -5 10.98 -5 12 C-5.66 12 -6.32 12 -7 12 C-6.68798326 14.04174058 -6.37536431 16.08338913 -6.0625 18.125 C-5.88847656 19.26195313 -5.71445312 20.39890625 -5.53515625 21.5703125 C-5.04410734 24.71732669 -4.52981281 27.85930783 -4 31 C-6 30 -6 30 -7.1015625 27.33203125 C-9.2898157 19.21646612 -8.83016618 11.26996005 -5.16796875 3.70703125 C-3.8954097 1.84713726 -2.49141573 0 0 0 Z " fill="#C3C37C" transform="translate(62,56)"/>
<path d="M0 0 C2 1.5 2 1.5 4 4 C4.72489067 10.76564624 3.24080535 17.3528285 2 24 C-1.77070649 22.3327868 -3.0709374 20.66521894 -5 17 C-0.25 13 -0.25 13 2 13 C1.85769192 11.58297487 1.71099254 10.1663904 1.5625 8.75 C1.48128906 7.96109375 1.40007812 7.1721875 1.31640625 6.359375 C1.02365007 4.17635361 0.57935581 2.1226818 0 0 Z " fill="#E1C066" transform="translate(63,70)"/>
<path d="M0 0 C0.66 0.33 1.32 0.66 2 1 C1.90234375 3.97851562 1.90234375 3.97851562 1.8046875 6.95703125 C1.86745538 9.31359719 1.86745538 9.31359719 4 12 C2.68 12.33 1.36 12.66 0 13 C0.33 13.99 0.66 14.98 1 16 C0.72230092 18.3406065 0.39460023 20.67624308 0 23 C-0.33 23 -0.66 23 -1 23 C-1.268125 21.948125 -1.53625 20.89625 -1.8125 19.8125 C-2.75744389 16.09478065 -2.75744389 16.09478065 -4.625 13.6875 C-6.72446321 9.58400372 -6.23720147 5.52439843 -6 1 C-5.67 1 -5.34 1 -5 1 C-5 3.64 -5 6.28 -5 9 C-3.68 8.67 -2.36 8.34 -1 8 C-0.67 5.36 -0.34 2.72 0 0 Z " fill="#15538E" transform="translate(68,57)"/>
<path d="M0 0 C2.5 0.25 2.5 0.25 4.5 2.25 C4.6875 5.3125 4.6875 5.3125 4.5 8.25 C3.5 9.25 3.5 9.25 0 9.375 C-3.5 9.25 -3.5 9.25 -4.5 8.25 C-4.6875 5.3125 -4.6875 5.3125 -4.5 2.25 C-2.5 0.25 -2.5 0.25 0 0 Z " fill="#0B5599" transform="translate(78.5,56.75)"/>
<path d="M0 0 C4.98232221 1.27454754 7.70268484 3.04322181 11 7 C12.09414167 10.07646894 11.98766306 12.53765691 11.5625 15.75 C11.46066406 16.54921875 11.35882813 17.3484375 11.25390625 18.171875 C11.17011719 18.77515625 11.08632812 19.3784375 11 20 C10.67 20 10.34 20 10 20 C10 18.35 10 16.7 10 15 C9.01 14.67 8.02 14.34 7 14 C7 13.34 7 12.68 7 12 C6.03886134 10.63838689 5.04115841 9.30144802 4 8 C4.99 7.01 5.98 6.02 7 5 C5.68 5.33 4.36 5.66 3 6 C0 2.25 0 2.25 0 0 Z " fill="#0255A2" transform="translate(82,45)"/>
<path d="M0 0 C1 3 1 3 0.328125 4.9375 C-0.02765625 5.618125 -0.3834375 6.29875 -0.75 7 C-1.09546875 7.680625 -1.4409375 8.36125 -1.796875 9.0625 C-3.03689448 11.05941449 -4.17094504 12.52197579 -6 14 C-6.99 14 -7.98 14 -9 14 C-9.33 10.04 -9.66 6.08 -10 2 C-8.515 2.99 -8.515 2.99 -7 4 C-4.41666667 3.91666667 -4.41666667 3.91666667 -2 3 C-1.34 2.01 -0.68 1.02 0 0 Z " fill="#CBC370" transform="translate(101,80)"/>
<path d="M0 0 C1.32 0 2.64 0 4 0 C4.6509259 1.24735567 5.29551669 2.49801832 5.9375 3.75 C6.29714844 4.44609375 6.65679687 5.1421875 7.02734375 5.859375 C9.00997838 10.22276366 9.1103732 13.96268029 9.0625 18.75 C9.05347656 19.92046875 9.04445313 21.0909375 9.03515625 22.296875 C9.02355469 23.18890625 9.01195313 24.0809375 9 25 C8.67 25 8.34 25 8 25 C7.67 19.72 7.34 14.44 7 9 C6.01 9.33 5.02 9.66 4 10 C3.67 10.99 3.34 11.98 3 13 C2.34 13 1.68 13 1 13 C0.67 8.71 0.34 4.42 0 0 Z " fill="#BFC887" transform="translate(94,55)"/>
<path d="M0 0 C0 0.66 0 1.32 0 2 C0.66 2.33 1.32 2.66 2 3 C1.505 3.61875 1.01 4.2375 0.5 4.875 C-1.19222773 6.83880904 -1.19222773 6.83880904 -1 9 C-6.6 7.21818182 -6.6 7.21818182 -9.0625 5.875 C-11.47387354 4.7859926 -13.38432839 4.85468491 -16 5 C-15.67 4.34 -15.34 3.68 -15 3 C-13.9275 3.061875 -12.855 3.12375 -11.75 3.1875 C-6.66391832 2.93319592 -5.08957859 0 0 0 Z " fill="#AECAF0" transform="translate(91,2)"/>
<path d="M0 0 C0.66 0.33 1.32 0.66 2 1 C-0.875 5.875 -0.875 5.875 -2 7 C-1.01 7.33 -0.02 7.66 1 8 C1.6875 10.0625 1.6875 10.0625 2 12 C1.01 12.495 1.01 12.495 0 13 C-0.33 12.67 -0.66 12.34 -1 12 C-1.33 12.66 -1.66 13.32 -2 14 C-2.66 14 -3.32 14 -4 14 C-4 14.99 -4 15.98 -4 17 C-3.34 17 -2.68 17 -2 17 C-2.33 17.66 -2.66 18.32 -3 19 C-3.66 18.67 -4.32 18.34 -5 18 C-5 16.35 -5 14.7 -5 13 C-4.34 13 -3.68 13 -3 13 C-3 11.68 -3 10.36 -3 9 C-3.66 9 -4.32 9 -5 9 C-5.3125 6.1875 -5.3125 6.1875 -5 3 C-2.625 1.0625 -2.625 1.0625 0 0 Z " fill="#084F90" transform="translate(86,68)"/>
<path d="M0 0 C0 0.99 0 1.98 0 3 C0.99 3.66 1.98 4.32 3 5 C4.1875 7.125 4.1875 7.125 5 9 C5.66 8.67 6.32 8.34 7 8 C7 9.65 7 11.3 7 13 C7.99 13.33 8.98 13.66 10 14 C10.66 13.34 11.32 12.68 12 12 C12.33 12.99 12.66 13.98 13 15 C12.34 15 11.68 15 11 15 C10.67 15.99 10.34 16.98 10 18 C4.42562575 12.80762601 -0.02596587 7.50296493 -4 1 C-2 0 -2 0 0 0 Z " fill="#ADC1DE" transform="translate(41,117)"/>
<path d="M0 0 C1.98 0 3.96 0 6 0 C2.86097372 2.49164916 -0.39517373 4.4408295 -3.9375 6.3125 C-5.46697266 7.14201172 -5.46697266 7.14201172 -7.02734375 7.98828125 C-10 9 -10 9 -12.75390625 8.23046875 C-13.49511719 7.82441406 -14.23632812 7.41835937 -15 7 C-15.66 6.67 -16.32 6.34 -17 6 C-17 5.34 -17 4.68 -17 4 C-14.56926513 3.18975504 -13.21076786 2.94873214 -10.6875 3.5625 C-7.02594439 4.15856719 -4.4474501 3.25964523 -1 2 C-0.67 1.34 -0.34 0.68 0 0 Z " fill="#A9CCF7" transform="translate(69,7)"/>
<path d="M0 0 C0.33 0 0.66 0 1 0 C1.73250449 7.65060242 0.54733681 13.65934726 -4 20 C-4.99 20.33 -5.98 20.66 -7 21 C-6.32224549 16.88726239 -5.03076729 13.24641726 -3.5 9.375 C-1.66629927 4.71791144 -1.66629927 4.71791144 0 0 Z " fill="#92CBF4" transform="translate(124,85)"/>
<path d="M0 0 C-1.375 1.5 -1.375 1.5 -3 3 C-3.66 3 -4.32 3 -5 3 C-5 3.66 -5 4.32 -5 5 C-6.1446875 5.2165625 -6.1446875 5.2165625 -7.3125 5.4375 C-10.08172908 5.9632594 -10.08172908 5.9632594 -13 7 C-13 7.99 -13 8.98 -13 10 C-13.99 10 -14.98 10 -16 10 C-12.78937237 2.11936855 -8.00018129 -0.14815151 0 0 Z " fill="#005CA9" transform="translate(79,45)"/>
<path d="M0 0 C1.32 0.66 2.64 1.32 4 2 C2.6744419 5.62276315 1.05653045 8.63505348 -1.125 11.8125 C-1.66382812 12.60269531 -2.20265625 13.39289063 -2.7578125 14.20703125 C-3.37269531 15.09455078 -3.37269531 15.09455078 -4 16 C-4.62109375 14.140625 -4.62109375 14.140625 -5 12 C-3.0625 9.75 -3.0625 9.75 -1 8 C-1.33 7.34 -1.66 6.68 -2 6 C-2.35169068 4.67139075 -2.68770276 3.33841672 -3 2 C-2.01 1.34 -1.02 0.68 0 0 Z " fill="#AFC6E6" transform="translate(123,104)"/>
<path d="M0 0 C2.31 0.33 4.62 0.66 7 1 C7 1.66 7 2.32 7 3 C11.455 2.505 11.455 2.505 16 2 C15.67 3.98 15.34 5.96 15 8 C11.45756548 6.63408831 8.07372071 5.09068516 4.6875 3.375 C3.80449219 2.92898437 2.92148438 2.48296875 2.01171875 2.0234375 C1.34785156 1.68570312 0.68398437 1.34796875 0 1 C0 0.67 0 0.34 0 0 Z " fill="#99CDF4" transform="translate(112,22)"/>
<path d="M0 0 C0.66 0.33 1.32 0.66 2 1 C-14.7514328 11.4915028 -14.7514328 11.4915028 -19.12548828 10.53540039 C-19.74407715 10.35871826 -20.36266602 10.18203613 -21 10 C-17.54781943 8.29969216 -14.08736011 6.61696948 -10.625 4.9375 C-9.64015625 4.45216797 -8.6553125 3.96683594 -7.640625 3.46679688 C-6.69960938 3.01240234 -5.75859375 2.55800781 -4.7890625 2.08984375 C-3.91975098 1.66566162 -3.05043945 1.24147949 -2.15478516 0.80444336 C-1.0881665 0.4062439 -1.0881665 0.4062439 0 0 Z " fill="#2FB9EC" transform="translate(51,19)"/>
<path d="M0 0 C1.12383849 3.37151546 1.16190374 4.68027502 0 8 C-4.03448276 11 -4.03448276 11 -7 11 C-7 11.66 -7 12.32 -7 13 C-7.66 13 -8.32 13 -9 13 C-7.50923566 9.7173068 -5.61379679 7.06922559 -3.375 4.25 C-2.74335937 3.45078125 -2.11171875 2.6515625 -1.4609375 1.828125 C-0.97882813 1.22484375 -0.49671875 0.6215625 0 0 Z " fill="#97CCF6" transform="translate(114,109)"/>
<path d="M0 0 C0.33 0 0.66 0 1 0 C0.64234286 8.76260002 -1.38045551 16.65400942 -4 25 C-4.33 25 -4.66 25 -5 25 C-4.88506243 23.10353002 -4.75760358 21.20781668 -4.625 19.3125 C-4.55539063 18.25675781 -4.48578125 17.20101562 -4.4140625 16.11328125 C-4.00848801 13.06382025 -3.21787752 10.80480883 -2 8 C-1.59582781 6.570428 -1.21799316 5.13297118 -0.875 3.6875 C-0.58625 2.470625 -0.2975 1.25375 0 0 Z " fill="#AFBED7" transform="translate(136,72)"/>
<path d="M0 0 C4.1984359 -0.34986966 5.77469987 0.39895151 9 3 C11.14733927 3.70514846 11.14733927 3.70514846 13 4 C13 4.66 13 5.32 13 6 C14.65 6.33 16.3 6.66 18 7 C18 7.66 18 8.32 18 9 C13.64029169 7.65150163 9.68658562 5.95092154 5.625 3.875 C4.56539063 3.33617187 3.50578125 2.79734375 2.4140625 2.2421875 C1.61742188 1.83226562 0.82078125 1.42234375 0 1 C0 0.67 0 0.34 0 0 Z " fill="#92D1F9" transform="translate(94,13)"/>
<path d="M0 0 C0.66 0 1.32 0 2 0 C2 0.66 2 1.32 2 2 C2.61875 2.309375 3.2375 2.61875 3.875 2.9375 C5.25 3.625 6.625 4.3125 8 5 C8 7.64 8 10.28 8 13 C4.48901975 8.98745115 2.23462006 4.79016959 0 0 Z " fill="#AFC1DD" transform="translate(29,105)"/>
<path d="M0 0 C0.66 0.33 1.32 0.66 2 1 C0.51637716 7.26418531 -3.24162156 11.91513505 -7 17 C-7.66 16.34 -8.32 15.68 -9 15 C-8.34 14.01 -7.68 13.02 -7 12 C-6.34 12 -5.68 12 -5 12 C-4.71125 11.21625 -4.4225 10.4325 -4.125 9.625 C-3 7 -3 7 -1 5 C-0.35232207 2.42938689 -0.35232207 2.42938689 0 0 Z " fill="#1EA2DF" transform="translate(116,100)"/>
<path d="M0 0 C1.66666667 1.66666667 3.33333333 3.33333333 5 5 C5.61875 5.515625 6.2375 6.03125 6.875 6.5625 C7.431875 7.2740625 7.431875 7.2740625 8 8 C7.6875 10.1875 7.6875 10.1875 7 12 C7 11.01 7 10.02 7 9 C6.01 9.33 5.02 9.66 4 10 C1.16625119 6.79663178 0.4794463 4.21912747 0 0 Z " fill="#1EB9DD" transform="translate(56,86)"/>
<path d="M0 0 C1.5 1.25 1.5 1.25 3 3 C3 4.32 3 5.64 3 7 C3.66 7 4.32 7 5 7 C5.66 8.98 6.32 10.96 7 13 C0.80753138 8.31380753 0.80753138 8.31380753 -1 5 C-0.6875 2.25 -0.6875 2.25 0 0 Z " fill="#1BBAEF" transform="translate(44,106)"/>
<path d="M0 0 C2.64 0.99 5.28 1.98 8 3 C6.62308038 5.75383923 4.63279958 6.51483101 2 8 C1.34 5.36 0.68 2.72 0 0 Z " fill="#B0C5E2" transform="translate(23,89)"/>
<path d="M0 0 C0.33 0.99 0.66 1.98 1 3 C2.32 3 3.64 3 5 3 C4.34 4.98 3.68 6.96 3 9 C2.34 8.34 1.68 7.68 1 7 C-1.68839385 6.73008094 -4.29141936 6.91262643 -7 7 C-7 6.67 -7 6.34 -7 6 C-5.02 5.67 -3.04 5.34 -1 5 C-0.67 3.35 -0.34 1.7 0 0 Z " fill="#B7DBEF" transform="translate(83,60)"/>
<path d="M0 0 C4.99275057 1.27721526 7.57611908 3.17330957 11 7 C10.34 7.66 9.68 8.32 9 9 C8.34 7.68 7.68 6.36 7 5 C5.68 5.33 4.36 5.66 3 6 C0 2.25 0 2.25 0 0 Z " fill="#005DAA" transform="translate(82,45)"/>
<path d="M0 0 C0.33 0.66 0.66 1.32 1 2 C0.175 2.61875 -0.65 3.2375 -1.5 3.875 C-2.325 4.57625 -3.15 5.2775 -4 6 C-4 6.66 -4 7.32 -4 8 C-6.64 7.67 -9.28 7.34 -12 7 C-8.35140239 3.95950199 -4.2555467 2.03481238 0 0 Z " fill="#ACC2DC" transform="translate(64,1)"/>
<path d="M0 0 C0.66 0.33 1.32 0.66 2 1 C0.1875 3 0.1875 3 -2 5 C-2.99 5 -3.98 5 -5 5 C-5 5.66 -5 6.32 -5 7 C-5.66 7 -6.32 7 -7 7 C-6.67 7.99 -6.34 8.98 -6 10 C-7.65 9.67 -9.3 9.34 -11 9 C-7.56638098 5.36440339 -4.2026393 2.63886654 0 0 Z " fill="#96CDF8" transform="translate(92,132)"/>
<path d="M0 0 C3.59075147 1.33370769 6.84621398 2.80987082 10 5 C11.09658936 8.28976808 10.79953138 9.71303767 10 13 C9.67 13 9.34 13 9 13 C8.67 10.69 8.34 8.38 8 6 C5.09399739 4.74335022 3.20395416 4 0 4 C0 2.68 0 1.36 0 0 Z " fill="#B4C3DC" transform="translate(127,19)"/>
<path d="M0 0 C1.32 0 2.64 0 4 0 C4.66 2.31 5.32 4.62 6 7 C5.34 6.67 4.68 6.34 4 6 C4 5.34 4 4.68 4 4 C3.34 4 2.68 4 2 4 C2 5.98 2 7.96 2 10 C1.67 10 1.34 10 1 10 C0.67 6.7 0.34 3.4 0 0 Z " fill="#66B3B1" transform="translate(94,55)"/>
<path d="M0 0 C1.48285242 0.95262034 2.96118201 1.91228405 4.4375 2.875 C5.67306641 3.67550781 5.67306641 3.67550781 6.93359375 4.4921875 C9 6 9 6 10 8 C9.278125 7.690625 8.55625 7.38125 7.8125 7.0625 C5.19692691 6.07439461 2.74881018 5.4712246 0 5 C0 3.35 0 1.7 0 0 Z " fill="#98D0F9" transform="translate(60,129)"/>
<path d="M0 0 C0.33 0 0.66 0 1 0 C1 2.31 1 4.62 1 7 C0.01 7.33 -0.98 7.66 -2 8 C-2.66 8.66 -3.32 9.32 -4 10 C-3.4359146 6.05140217 -2.2568294 3.29120954 0 0 Z " fill="#E0C168" transform="translate(94,68)"/>
<path d="M0 0 C0.625 1.8125 0.625 1.8125 1 4 C0.01 5.485 0.01 5.485 -1 7 C-1.99 6.67 -2.98 6.34 -4 6 C-4 4.68 -4 3.36 -4 2 C-2.68 2 -1.36 2 0 2 C0 1.34 0 0.68 0 0 Z " fill="#C3E7F5" transform="translate(73,60)"/>
<path d="M0 0 C1.65 0 3.3 0 5 0 C5 1.65 5 3.3 5 5 C3.68 5 2.36 5 1 5 C0.67 3.35 0.34 1.7 0 0 Z " fill="#DCF5FB" transform="translate(83,58)"/>
<path d="M0 0 C1.98 0 3.96 0 6 0 C2.59780735 2.74792483 -1.48464588 6 -6 6 C-6 5.34 -6 4.68 -6 4 C-4.7934375 3.566875 -4.7934375 3.566875 -3.5625 3.125 C-0.8673532 2.26737432 -0.8673532 2.26737432 0 0 Z " fill="#92D3F7" transform="translate(69,7)"/>
<path d="M0 0 C5 2 5 2 10 4 C9.34 4.66 8.68 5.32 8 6 C7.01 6 6.02 6 5 6 C5 5.34 5 4.68 5 4 C4.01 4.33 3.02 4.66 2 5 C1.34 3.35 0.68 1.7 0 0 Z " fill="#99CDF8" transform="translate(70,137)"/>
<path d="M0 0 C0.78375 0.04125 1.5675 0.0825 2.375 0.125 C2.705 0.785 3.035 1.445 3.375 2.125 C1.725 2.125 0.075 2.125 -1.625 2.125 C-1.295 2.785 -0.965 3.445 -0.625 4.125 C-1.285 4.125 -1.945 4.125 -2.625 4.125 C-2.625 5.115 -2.625 6.105 -2.625 7.125 C-3.285 7.125 -3.945 7.125 -4.625 7.125 C-4.75 4.75 -4.75 4.75 -4.625 2.125 C-2.625 0.125 -2.625 0.125 0 0 Z " fill="#09498B" transform="translate(78.625,56.875)"/>
<path d="M0 0 C-1 3 -1 3 -3.875 4.75 C-7 6 -7 6 -10 5 C-8.71186658 4.16121545 -7.41936744 3.32913217 -6.125 2.5 C-5.40570312 2.0359375 -4.68640625 1.571875 -3.9453125 1.09375 C-2 0 -2 0 0 0 Z " fill="#AEC3D7" transform="translate(30,19)"/>
<path d="M0 0 C1.65 0 3.3 0 5 0 C5.66 2.31 6.32 4.62 7 7 C6.34 6.67 5.68 6.34 5 6 C5 5.34 5 4.68 5 4 C4.360625 3.71125 3.72125 3.4225 3.0625 3.125 C1 2 1 2 0 0 Z " fill="#23BCF2" transform="translate(51,120)"/>
<path d="M0 0 C3.3 0 6.6 0 10 0 C10 0.99 10 1.98 10 3 C4.58461538 4.23076923 4.58461538 4.23076923 1.625 3.0625 C1.08875 2.711875 0.5525 2.36125 0 2 C0 1.34 0 0.68 0 0 Z " fill="#DDF6FE" transform="translate(75,66)"/>
<path d="M0 0 C1.2380014 3.57644848 0.74926071 6.33694766 0 10 C-3.875 8.25 -3.875 8.25 -5 6 C-3.68 6.33 -2.36 6.66 -1 7 C-0.67 4.69 -0.34 2.38 0 0 Z " fill="#B4BE8D" transform="translate(65,84)"/>
<path d="M0 0 C1.98 0 3.96 0 6 0 C5.67 0.99 5.34 1.98 5 3 C3.02 3 1.04 3 -1 3 C-0.67 2.01 -0.34 1.02 0 0 Z " fill="#DFF7FB" transform="translate(75,53)"/>
<path d="M0 0 C0.66 0 1.32 0 2 0 C2 0.66 2 1.32 2 2 C2.99 2 3.98 2 5 2 C5 2.66 5 3.32 5 4 C3.35 4.66 1.7 5.32 0 6 C0 4.02 0 2.04 0 0 Z " fill="#1AB6E5" transform="translate(58,52)"/>
<path d="M0 0 C3.625 0.1875 3.625 0.1875 6.625 2.1875 C6.625 2.8475 6.625 3.5075 6.625 4.1875 C5.16596742 3.87828116 3.70779278 3.56501201 2.25 3.25 C1.43789062 3.07597656 0.62578125 2.90195313 -0.2109375 2.72265625 C-2.375 2.1875 -2.375 2.1875 -4.375 1.1875 C-3.375 0.1875 -3.375 0.1875 0 0 Z " fill="#92D3F9" transform="translate(79.375,4.8125)"/>
<path d="M0 0 C4.75 0.875 4.75 0.875 7 2 C7 2.66 7 3.32 7 4 C5.68 4 4.36 4 3 4 C2.67 4.66 2.34 5.32 2 6 C2 4.35 2 2.7 2 1 C1.34 0.67 0.68 0.34 0 0 Z " fill="#10A9E5" transform="translate(113,24)"/>
<path d="M0 0 C0.66 0.33 1.32 0.66 2 1 C-0.475 4.465 -0.475 4.465 -3 8 C-3.33 6.68 -3.66 5.36 -4 4 C-2.0625 1.75 -2.0625 1.75 0 0 Z " fill="#ACBCD5" transform="translate(122,112)"/>
<path d="M0 0 C0.66 0.33 1.32 0.66 2 1 C1.67 3.97 1.34 6.94 1 10 C0.67 10 0.34 10 0 10 C-0.66 7.03 -1.32 4.06 -2 1 C-1.34 0.67 -0.68 0.34 0 0 Z " fill="#175075" transform="translate(67,70)"/>
</svg>
